<?xml version="1.0" encoding="UTF-8"?>
<svg xmlns="http://www.w3.org/2000/svg" xmlns:xlink="http://www.w3.org/1999/xlink" width="300px" height="300px" viewBox="0 0 300 300" version="1.1">
<g id="surface1">
<path style=" stroke:none;fill-rule:nonzero;fill:rgb(0%,0%,0%);fill-opacity:1;" d="M 129.300781 0.839844 C 126 2.28125 123.601562 5.941406 123.601562 9.359375 C 123.601562 11.640625 133.558594 30.601562 135.898438 32.820312 C 137.640625 34.5 138.421875 34.800781 140.878906 34.800781 C 146.28125 34.800781 150.539062 30.238281 149.699219 25.320312 C 149.519531 24.121094 147 18.480469 144.121094 12.898438 C 139.140625 3.238281 138.78125 2.640625 136.199219 1.320312 C 133.199219 -0.179688 131.820312 -0.300781 129.300781 0.839844 Z M 129.300781 0.839844 "/>
<path style=" stroke:none;fill-rule:nonzero;fill:rgb(0%,0%,0%);fill-opacity:1;" d="M 199.980469 0.660156 C 198.960938 0.960938 197.398438 2.039062 196.558594 3.058594 C 194.820312 5.101562 186.121094 22.800781 185.578125 25.320312 C 185.160156 27.601562 186.359375 30.71875 188.460938 32.761719 C 190.078125 34.320312 190.679688 34.5 194.101562 34.5 C 197.339844 34.5 198.121094 34.261719 199.5 33 C 200.398438 32.160156 203.398438 26.941406 206.21875 21.300781 C 211.078125 11.699219 211.320312 10.980469 211.078125 7.980469 C 210.78125 4.378906 209.21875 2.21875 205.980469 0.839844 C 203.820312 -0.121094 202.738281 -0.121094 199.980469 0.660156 Z M 199.980469 0.660156 "/>
<path style=" stroke:none;fill-rule:nonzero;fill:rgb(0%,0%,0%);fill-opacity:1;" d="M 94.558594 53.398438 C 87.601562 55.5 86.699219 66.121094 93.238281 69.238281 C 96.421875 70.738281 115.859375 70.621094 118.800781 69.121094 C 121.679688 67.621094 123.839844 63.359375 123.238281 60.300781 C 122.699219 57.359375 119.878906 54.179688 117.121094 53.398438 C 114.480469 52.679688 97.019531 52.679688 94.558594 53.398438 Z M 94.558594 53.398438 "/>
<path style=" stroke:none;fill-rule:nonzero;fill:rgb(0%,0%,0%);fill-opacity:1;" d="M 218.339844 53.339844 C 215.460938 54.300781 213.660156 55.921875 212.640625 58.5 C 211.5 61.621094 211.859375 64.5 213.660156 66.839844 C 216.058594 69.898438 217.441406 70.199219 229.320312 70.199219 C 239.21875 70.199219 240.480469 70.078125 242.28125 69 C 247.859375 65.578125 247.921875 57.601562 242.339844 54.300781 C 240.539062 53.21875 239.101562 53.101562 230.101562 52.980469 C 224.519531 52.921875 219.179688 53.101562 218.339844 53.339844 Z M 218.339844 53.339844 "/>
<path style=" stroke:none;fill-rule:nonzero;fill:rgb(0%,0%,0%);fill-opacity:1;" d="M 147.359375 54 C 142.800781 55.441406 141.71875 57.960938 141 68.820312 C 139.679688 87.71875 135.539062 104.160156 128.398438 119.160156 C 121.679688 133.199219 114.121094 140.398438 96.421875 149.699219 L 88.800781 153.71875 L 88.921875 219.78125 L 89.101562 285.839844 L 99.601562 289.261719 C 119.039062 295.621094 132.960938 298.378906 150.601562 299.398438 C 164.519531 300.179688 218.160156 300.179688 223.199219 299.398438 C 235.738281 297.421875 245.761719 287.160156 246.480469 275.640625 C 246.71875 271.859375 246.121094 267.238281 245.101562 264.601562 C 244.859375 263.878906 245.398438 263.460938 247.019531 262.859375 C 254.578125 260.21875 260.640625 253.621094 263.160156 245.460938 C 264.179688 242.101562 264.179688 234.601562 263.160156 231.300781 L 262.441406 228.898438 L 267.058594 226.679688 C 281.460938 219.660156 286.261719 201.960938 277.378906 188.578125 L 275.339844 185.460938 L 277.140625 182.820312 C 280.441406 177.960938 281.578125 174.238281 281.640625 168.300781 C 281.699219 164.039062 281.398438 162.121094 280.320312 159.179688 C 278.398438 154.140625 274.140625 149.160156 269.398438 146.28125 C 261.839844 141.78125 263.820312 141.960938 222.480469 141.71875 C 202.078125 141.660156 185.398438 141.421875 185.398438 141.179688 C 185.398438 141 186.058594 138.960938 186.898438 136.679688 C 192 122.460938 195.300781 88.378906 192.359375 79.800781 C 188.21875 67.558594 179.398438 58.738281 167.699219 55.199219 C 163.019531 53.820312 150.300781 53.039062 147.359375 54 Z M 147.359375 54 "/>
<path style=" stroke:none;fill-rule:nonzero;fill:rgb(0%,0%,0%);fill-opacity:1;" d="M 22.921875 142.621094 C 21.839844 143.160156 20.339844 144.421875 19.621094 145.441406 L 18.300781 147.300781 L 18.121094 220.199219 C 17.941406 302.761719 17.578125 295.921875 22.859375 298.679688 C 25.5 300 25.738281 300.058594 45.121094 299.878906 C 63.839844 299.699219 64.800781 299.640625 66.359375 298.441406 C 67.261719 297.78125 68.578125 296.460938 69.238281 295.558594 C 70.441406 293.941406 70.5 293.519531 70.5 220.921875 C 70.5 149.519531 70.441406 147.839844 69.300781 145.921875 C 68.640625 144.839844 67.019531 143.460938 65.699219 142.800781 C 63.359375 141.660156 61.921875 141.601562 44.039062 141.601562 C 27.660156 141.601562 24.601562 141.78125 22.921875 142.621094 Z M 22.921875 142.621094 "/>
</g>
</svg>
