<?xml version="1.0" encoding="UTF-8"?>
<svg xmlns="http://www.w3.org/2000/svg" xmlns:xlink="http://www.w3.org/1999/xlink" width="300px" height="300px" viewBox="0 0 300 299" version="1.1">
<g id="surface1">
<path style=" stroke:none;fill-rule:nonzero;fill:rgb(0%,0%,0%);fill-opacity:1;" d="M 156.140625 2.261719 C 149.066406 5.984375 146.53125 11.703125 145.460938 26.46875 C 144.796875 37.109375 143.859375 41.230469 139.589844 51.207031 C 125.179688 85.257812 110.230469 111.195312 96.886719 125.027344 C 92.347656 129.816406 86.878906 136.597656 84.742188 140.054688 C 81.941406 144.976562 80.605469 146.175781 78.871094 145.375 C 75.535156 143.648438 28.023438 143.25 22.554688 144.84375 C 15.878906 146.839844 11.210938 150.828125 7.605469 157.347656 C 4.671875 162.933594 4.671875 163.597656 4.671875 220.125 L 4.671875 277.320312 L 7.875 282.90625 C 9.742188 286.097656 13.613281 290.222656 16.546875 292.214844 L 22.019531 295.941406 L 49.378906 295.941406 C 72.863281 295.941406 77.402344 295.675781 80.203125 293.679688 C 83.40625 291.683594 84.875 291.683594 97.554688 293.28125 C 120.105469 296.207031 154.539062 298.070312 190.835938 298.203125 C 221.398438 298.335938 225.933594 298.070312 235.140625 295.542969 C 261.03125 288.492188 274.242188 275.722656 275.3125 256.570312 C 275.578125 250.453125 276.644531 247.925781 280.78125 242.207031 C 288.789062 231.300781 291.324219 219.726562 288.121094 208.421875 C 287.054688 204.300781 287.1875 202.835938 289.324219 199.777344 C 296.664062 189.136719 297.597656 176.234375 291.726562 164.398438 C 288.390625 157.613281 288.257812 156.550781 289.457031 149.367188 C 290.257812 144.84375 290.390625 139.65625 289.722656 136.730469 C 283.585938 110.660156 255.160156 101.617188 204.847656 109.863281 C 198.308594 110.929688 191.769531 112.125 190.300781 112.65625 C 188.035156 113.320312 187.898438 112.789062 188.699219 105.875 C 189.234375 101.75 192.039062 90.179688 194.839844 80.203125 C 202.046875 55.332031 203.515625 44.023438 200.980469 32.1875 C 197.109375 13.566406 185.898438 3.191406 167.480469 0.796875 C 162.410156 0.132812 159.742188 0.53125 156.140625 2.261719 Z M 175.488281 19.816406 C 177.757812 21.015625 180.828125 24.738281 182.5625 27.929688 C 185.363281 33.25 185.632812 35.246094 185.097656 46.550781 C 184.5625 55.730469 183.230469 62.914062 180.292969 72.488281 C 170.550781 103.082031 169.617188 118.242188 177.222656 125.691406 C 181.359375 129.816406 185.5 129.949219 204.179688 126.222656 C 230.472656 120.902344 258.496094 122.632812 267.972656 130.082031 C 274.378906 135.003906 275.3125 143.78125 270.773438 155.21875 C 269.171875 159.078125 269.441406 159.742188 273.976562 166.523438 C 280.78125 176.367188 280.78125 183.152344 274.109375 192.859375 C 269.039062 200.175781 268.90625 201.105469 272.375 212.414062 C 274.777344 220.125 272.375 227.441406 264.769531 235.421875 C 258.898438 241.675781 258.898438 241.675781 258.898438 251.515625 C 258.898438 263.089844 256.894531 267.078125 248.085938 272.929688 C 240.878906 277.71875 231.273438 280.511719 217.261719 281.976562 C 199.242188 283.703125 126.511719 280.910156 99.421875 277.320312 L 94.082031 276.65625 L 94.351562 216.003906 L 94.484375 155.484375 L 98.753906 148.4375 C 101.15625 144.445312 106.09375 138.328125 109.832031 134.871094 C 119.304688 125.558594 130.917969 107.46875 142.125 84.460938 C 157.207031 53.46875 161.878906 40.832031 161.609375 30.992188 C 161.476562 26.46875 161.742188 21.148438 162.277344 19.285156 C 163.078125 16.226562 163.613281 15.960938 167.347656 16.625 C 169.617188 17.15625 173.355469 18.621094 175.488281 19.816406 Z M 74.867188 162.136719 L 78.070312 164.664062 L 78.070312 274.261719 L 74.332031 277.453125 C 70.730469 280.511719 69.929688 280.644531 49.511719 280.644531 C 30.160156 280.644531 28.023438 280.378906 24.820312 277.851562 L 21.351562 275.191406 L 21.351562 219.992188 C 21.351562 166.65625 21.484375 164.796875 24.019531 162.269531 C 26.421875 159.875 28.425781 159.609375 49.242188 159.609375 C 69.394531 159.609375 72.0625 159.875 74.867188 162.136719 Z M 74.867188 162.136719 "/>
</g>
</svg>
